<svg xmlns="http://www.w3.org/2000/svg" viewBox="0 0 546 546">
  <style>
    path { fill: #1F1622; }
    @media (prefers-color-scheme: dark) { path { fill: #F1E8DA; } }
  </style>
  <g transform="translate(0,546) scale(0.1,-0.1)" stroke="none">
    <path d="M2603 4553 c-66 -54 -192 -155 -279 -224 -87 -70 -384 -307 -659
-528 -275 -221 -695 -558 -932 -749 l-433 -347 65 -3 c50 -2 65 -6 65 -18 0
-9 34 14 85 56 l85 71 0 -1001 0 -1000 55 0 55 0 0 1044 0 1045 56 43 c31 24
84 66 118 94 62 51 424 342 1328 1067 280 224 512 407 518 407 9 0 427 -334
1654 -1320 l366 -294 0 -1043 0 -1043 55 0 55 0 2 997 3 996 112 -91 c62 -51
115 -92 118 -92 3 0 5 18 5 39 0 37 2 40 30 43 27 3 8 21 -228 209 -141 114
-457 368 -702 564 -245 197 -659 529 -920 738 -261 209 -490 393 -508 409 -18
15 -36 28 -41 28 -5 0 -62 -44 -128 -97z"/>
    <path d="M1070 1720 l0 -840 1660 0 1660 0 0 840 0 840 -1660 0 -1660 0 0
-840z m930 0 l0 -760 -422 2 -423 3 -3 754 -2 754 21 -19 c27 -24 63 -88 79
-137 11 -35 9 -44 -14 -97 -28 -62 -32 -103 -16 -162 11 -39 66 -119 87 -125
6 -2 23 21 38 51 23 48 27 65 23 124 -3 56 -9 76 -36 117 -18 27 -32 61 -32
78 0 29 2 28 75 -44 56 -54 78 -83 86 -113 25 -95 101 -161 198 -173 59 -7 62
0 36 78 -29 84 -114 158 -181 159 -26 0 -157 119 -132 120 9 0 40 -11 70 -25
58 -27 124 -32 179 -13 49 16 109 60 106 77 -3 20 -86 61 -134 68 -49 6 -110
-10 -159 -43 -31 -21 -45 -25 -78 -20 -47 8 -89 32 -130 75 l-30 31 397 0 397
0 0 -760z m370 656 l0 -104 -32 -11 c-75 -26 -138 -104 -138 -171 l0 -30 200
0 200 0 0 30 c0 69 -65 150 -135 168 l-30 8 -3 107 -3 107 303 -2 303 -3 3
-102 3 -102 -41 -11 c-45 -12 -114 -74 -130 -116 -6 -14 -10 -39 -10 -55 l0
-29 200 0 200 0 0 30 c0 68 -68 150 -142 170 l-33 10 2 102 2 103 146 3 145 3
0 -761 0 -760 -650 0 -650 0 0 760 0 760 145 0 145 0 0 -104z m1380 70 c55
-90 124 -122 241 -113 43 4 81 3 83 -2 9 -15 -88 -60 -151 -70 -34 -5 -75 -17
-91 -25 -63 -32 -132 -147 -101 -167 32 -20 133 -1 187 36 20 14 51 49 68 78
27 46 41 58 119 99 49 26 91 45 93 43 9 -9 -35 -74 -71 -104 -55 -48 -77 -100
-77 -187 0 -41 5 -77 13 -87 11 -16 16 -14 62 17 29 19 61 52 75 77 22 39 25
56 25 141 0 92 1 98 31 134 16 21 36 40 42 42 9 3 12 -159 12 -697 l0 -701
-422 2 -423 3 -3 758 -2 757 134 0 134 0 22 -34z m560 -4 l0 -39 -74 -20
c-105 -29 -154 -18 -218 48 l-47 49 170 0 169 0 0 -38z m-351 -22 c47 -35 46
-50 -6 -50 -42 0 -92 22 -124 56 l-22 24 55 0 c45 0 62 -5 97 -30z m-2310 -44
l24 -13 -24 -13 c-42 -23 -92 -29 -136 -18 -51 12 -54 24 -10 43 41 18 115 18
146 1z m2284 -188 c-20 -35 -92 -78 -131 -78 -23 0 -23 0 -6 29 18 30 58 58
102 71 51 15 55 13 35 -22z m-2623 -20 c11 -24 20 -52 20 -63 0 -29 -20 -95
-29 -95 -14 0 -41 71 -41 110 0 39 14 90 25 90 3 0 15 -19 25 -42z m2843 -107
c-33 -52 -63 -66 -63 -29 0 45 21 99 53 135 l32 37 3 -49 c3 -38 -2 -57 -25
-94z m-2595 85 c34 -18 65 -51 86 -93 19 -38 11 -41 -42 -14 -42 22 -63 43
-86 89 -15 29 -15 32 -1 32 9 0 28 -6 43 -14z"/>
    <path d="M1282 1478 l3 -343 52 -3 53 -3 2 248 3 248 50 -68 c28 -38 110 -149
183 -248 l132 -180 48 3 47 3 0 340 0 340 -52 3 -53 3 -2 -248 -3 -248 -69 95
c-39 52 -121 164 -183 248 l-114 152 -50 0 -49 0 2 -342z"/>
    <path d="M2330 2027 c0 -23 38 -50 70 -50 32 0 70 27 70 50 0 10 -18 13 -70
13 -52 0 -70 -3 -70 -13z"/>
    <path d="M2990 2032 c0 -4 7 -18 16 -30 20 -28 83 -31 107 -4 31 34 21 42 -53
42 -38 0 -70 -3 -70 -8z"/>
    <path d="M2629 1687 c-124 -47 -190 -140 -192 -272 -2 -165 103 -279 268 -293
127 -10 236 48 290 152 25 50 30 70 30 135 0 123 -51 208 -159 263 -52 27
-183 35 -237 15z m177 -96 c108 -49 142 -193 71 -300 -46 -70 -157 -96 -228
-55 -59 35 -92 87 -97 153 -7 99 28 168 102 202 52 24 100 24 152 0z"/>
    <path d="M3490 1816 c0 -5 37 -144 120 -456 21 -80 44 -164 50 -187 l11 -43
49 0 c38 0 50 4 54 18 4 14 28 112 106 437 9 40 10 38 70 -205 28 -113 55
-215 60 -227 8 -19 17 -23 55 -23 28 0 47 5 50 13 2 6 20 73 39 147 19 74 58
221 86 327 27 106 50 195 50 198 0 3 -24 5 -54 5 l-54 0 -58 -240 c-33 -132
-62 -240 -65 -240 -4 0 -10 17 -14 38 -6 35 -90 386 -101 425 -5 15 -14 17
-52 15 l-47 -3 -61 -245 -60 -245 -12 50 c-7 28 -35 139 -64 248 l-51 197 -54
0 c-29 0 -53 -2 -53 -4z"/>
  </g>
</svg>
